<svg height="512pt" viewBox="-31 0 512 512" width="512pt" xmlns="http://www.w3.org/2000/svg"><path d="m390 241v105h-30v-75h-45v-30zm0 0" fill="#4a696f"/><path d="m375 241h15v105h-15zm0 0" fill="#384949"/><path d="m135 241v30h-75v-105h30v75zm0 0" fill="#4a696f"/><path d="m135 241v30h-60v-105h15v75zm0 0" fill="#384949"/><path d="m120 76v60c0 24.898438-20.097656 45-45 45s-45-20.101562-45-45v-60zm0 0" fill="#57d9ad"/><path d="m120 76v60c0 24.898438-20.097656 45-45 45v-105zm0 0" fill="#26bfa6"/><path d="m30 0h90v76h-90zm0 0" fill="#e6ffff"/><path d="m75 0h45v76h-45zm0 0" fill="#d9f2ff"/><path d="m0 61h150v30h-150zm0 0" fill="#4a696f"/><path d="m75 61h75v30h-75zm0 0" fill="#384949"/><path d="m420 436v-60c0-24.898438-20.097656-45-45-45s-45 20.101562-45 45v60zm0 0" fill="#57d9ad"/><path d="m420 436v-60c0-24.898438-20.097656-45-45-45v105zm0 0" fill="#26bfa6"/><path d="m330 436h90v76h-90zm0 0" fill="#e6ffff"/><path d="m375 436h45v76h-45zm0 0" fill="#d9f2ff"/><path d="m300 421h150v30h-150zm0 0" fill="#4a696f"/><path d="m375 421h75v30h-75zm0 0" fill="#384949"/><path d="m225 151c-57.898438 0-105 47.101562-105 105s47.101562 105 105 105 105-47.101562 105-105-47.101562-105-105-105zm0 0" fill="#57d9ad"/><path d="m330 256c0 57.898438-47.101562 105-105 105v-210c57.898438 0 105 47.101562 105 105zm0 0" fill="#26bfa6"/><path d="m280.5 236.5-55.5 55.800781-15 15-40.5-40.800781 21-21 19.5 19.199219 15-15 34.5-34.199219zm0 0" fill="#e6ffff"/><path d="m280.5 236.5-55.5 55.800781v-42.601562l34.5-34.199219zm0 0" fill="#d9f2ff"/></svg>